<svg width="24" height="24" viewBox="0 0 24 24" fill="none" xmlns="http://www.w3.org/2000/svg">
<path d="M12 21C11.8684 21.0007 11.7379 20.9755 11.6161 20.9258C11.4943 20.876 11.3834 20.8027 11.29 20.71L3.51999 12.93C2.54536 11.9452 1.99866 10.6156 1.99866 9.22999C1.99866 7.84442 2.54536 6.51481 3.51999 5.52999C4.50226 4.5505 5.83283 4.00046 7.21999 4.00046C8.60716 4.00046 9.93773 4.5505 10.92 5.52999L12 6.60999L13.08 5.52999C14.0623 4.5505 15.3928 4.00046 16.78 4.00046C18.1672 4.00046 19.4977 4.5505 20.48 5.52999C21.4546 6.51481 22.0013 7.84442 22.0013 9.22999C22.0013 10.6156 21.4546 11.9452 20.48 12.93L12.71 20.71C12.6166 20.8027 12.5057 20.876 12.3839 20.9258C12.2621 20.9755 12.1316 21.0007 12 21Z" fill="black" fill-opacity="0.3"/>
</svg>
