<svg width="30" height="30" viewBox="0 0 30 30" fill="none" xmlns="http://www.w3.org/2000/svg">
<circle cx="15" cy="15" r="15" fill="black" fill-opacity="0.1"/>
<path d="M15 21.75C14.9013 21.7506 14.8035 21.7317 14.7121 21.6943C14.6207 21.657 14.5376 21.602 14.4675 21.5325L8.64003 15.6975C7.90905 14.9589 7.49902 13.9617 7.49902 12.9225C7.49902 11.8833 7.90905 10.8861 8.64003 10.1475C9.37672 9.41288 10.3746 9.00035 11.415 9.00035C12.4554 9.00035 13.4533 9.41288 14.19 10.1475L15 10.9575L15.81 10.1475C16.5467 9.41288 17.5447 9.00035 18.585 9.00035C19.6254 9.00035 20.6233 9.41288 21.36 10.1475C22.091 10.8861 22.501 11.8833 22.501 12.9225C22.501 13.9617 22.091 14.9589 21.36 15.6975L15.5325 21.5325C15.4624 21.602 15.3793 21.657 15.288 21.6943C15.1966 21.7317 15.0987 21.7506 15 21.75Z" fill="black"/>
</svg>
