<svg width="24" height="24" viewBox="0 0 24 24" fill="none" xmlns="http://www.w3.org/2000/svg">
<path d="M20.52 15.21L18.72 13.4V8.93999C18.7439 7.28381 18.1679 5.6749 17.0981 4.41032C16.0284 3.14575 14.5372 2.31092 12.9 2.05999C11.9498 1.93485 10.9839 2.0138 10.0666 2.29156C9.14934 2.56932 8.30187 3.03951 7.58072 3.67075C6.85958 4.30199 6.28134 5.07976 5.8846 5.95218C5.48787 6.8246 5.28175 7.7716 5.28 8.72999V13.4L3.48 15.21C3.2539 15.4399 3.10058 15.7313 3.0392 16.0478C2.97781 16.3643 3.01109 16.6919 3.13487 16.9896C3.25866 17.2873 3.46745 17.542 3.73515 17.7217C4.00285 17.9014 4.31758 17.9982 4.64 18H8V18.34C8.04671 19.3552 8.49395 20.3105 9.24372 20.9965C9.9935 21.6826 10.9847 22.0434 12 22C13.0153 22.0434 14.0065 21.6826 14.7563 20.9965C15.506 20.3105 15.9533 19.3552 16 18.34V18H19.36C19.6824 17.9982 19.9971 17.9014 20.2648 17.7217C20.5325 17.542 20.7413 17.2873 20.8651 16.9896C20.9889 16.6919 21.0222 16.3643 20.9608 16.0478C20.8994 15.7313 20.7461 15.4399 20.52 15.21ZM14 18.34C13.9445 18.821 13.7056 19.262 13.3331 19.5713C12.9605 19.8805 12.483 20.0341 12 20C11.517 20.0341 11.0395 19.8805 10.6669 19.5713C10.2944 19.262 10.0555 18.821 10 18.34V18H14V18.34Z" fill="black" fill-opacity="0.3"/>
</svg>
